<svg width="562" height="221" viewBox="0 0 562 221" fill="none" xmlns="http://www.w3.org/2000/svg">
<g clip-path="url(#clip0_288_1128)">
<path fill-rule="evenodd" clip-rule="evenodd" d="M165.818 3.60708C166.429 2.36898 165.921 0.869888 164.683 0.258772C163.445 -0.352345 161.946 0.155929 161.335 1.39403L138.575 47.5055C103.285 27.4818 57.6372 32.5063 27.5501 62.5933C-8.57335 98.7168 -8.57335 157.285 27.5501 193.408C63.6736 229.532 122.241 229.532 158.365 193.408C188.544 163.229 193.507 117.394 173.268 82.0603L219.287 59.3461C220.525 58.735 221.033 57.2359 220.422 55.9978C219.811 54.7597 218.312 54.2514 217.074 54.8625L174.875 75.6914C176.399 72.4039 177.087 68.8243 176.938 65.2733L197.075 50.7009C198.193 49.8914 198.444 48.3285 197.635 47.2099C196.825 46.0914 195.262 45.8408 194.144 46.6502L176.016 59.7682C175.209 57.0641 173.883 54.4819 172.038 52.1783L191.232 32.9844C192.208 32.0081 192.208 30.4252 191.232 29.4489C190.256 28.4726 188.673 28.4726 187.696 29.4489L168.503 48.6427C166.199 46.7977 163.617 45.4717 160.913 44.6646L174.031 26.5371C174.84 25.4186 174.589 23.8556 173.471 23.0462C172.352 22.2367 170.789 22.4873 169.98 23.6059L155.408 43.7432C151.856 43.5941 148.277 44.2816 144.989 45.8056L165.818 3.60708ZM166.08 85.6086L164.255 86.5091C164.14 86.5659 164.023 86.6131 163.904 86.6508C155.587 90.4962 145.405 88.9903 138.548 82.1332C131.69 75.2761 130.185 65.0941 134.03 56.7766C134.068 56.6579 134.115 56.5406 134.172 56.4255L135.027 54.6922C102.736 36.1333 60.7996 40.6575 33.207 68.2501C0.207691 101.249 0.207691 154.752 33.207 187.751C66.2063 220.75 119.709 220.75 152.708 187.751C180.393 160.066 184.854 117.943 166.08 85.6086ZM142.083 53.8489C148.917 47.0147 159.998 47.0147 166.832 53.8489C173.666 60.6831 173.666 71.7635 166.832 78.5977C159.998 85.4318 148.917 85.4318 142.083 78.5977C135.249 71.7635 135.249 60.6831 142.083 53.8489Z" fill="white"/>
<path d="M365.829 30.2952H359.141L352.741 13.1112C352.954 14.7965 353.114 16.2899 353.221 17.5912C353.349 18.8712 353.413 20.3965 353.413 22.1672V30.2952H348.741V8.1192H355.269L361.829 25.3352C361.359 22.4125 361.125 19.6605 361.125 17.0792V8.1192H365.829V30.2952Z" fill="#DB240B"/>
<path d="M389.639 30.2952L388.487 25.5272H382.023L380.903 30.2952H375.463L382.151 8.1192H388.519L395.207 30.2952H389.639ZM382.919 21.7192H387.591L385.255 11.9272L382.919 21.7192Z" fill="#DB240B"/>
<path d="M411.97 7.5752C413.634 7.5752 415.074 7.80986 416.29 8.2792C417.528 8.74853 418.648 9.4632 419.65 10.4232L417.218 13.2712C415.704 12.0339 414.082 11.4152 412.354 11.4152C411.437 11.4152 410.712 11.6072 410.178 11.9912C409.645 12.3539 409.378 12.8872 409.378 13.5912C409.378 14.0819 409.496 14.4872 409.73 14.8072C409.965 15.1059 410.381 15.3939 410.978 15.6712C411.576 15.9485 412.472 16.2792 413.666 16.6632C415.928 17.3885 417.592 18.2845 418.658 19.3512C419.725 20.3965 420.258 21.8899 420.258 23.8312C420.258 25.2179 419.906 26.4445 419.202 27.5112C418.498 28.5565 417.485 29.3779 416.162 29.9752C414.84 30.5512 413.272 30.8392 411.458 30.8392C409.645 30.8392 408.034 30.5512 406.626 29.9752C405.24 29.3992 404.045 28.6312 403.042 27.6712L405.698 24.7592C406.552 25.4845 407.426 26.0285 408.322 26.3912C409.24 26.7539 410.232 26.9352 411.298 26.9352C412.386 26.9352 413.24 26.7005 413.858 26.2312C414.498 25.7405 414.818 25.0685 414.818 24.2152C414.818 23.6605 414.701 23.2019 414.466 22.8392C414.232 22.4552 413.826 22.1139 413.25 21.8152C412.674 21.5165 411.842 21.1965 410.754 20.8552C408.301 20.1085 406.552 19.1912 405.506 18.1032C404.482 17.0152 403.97 15.6392 403.97 13.9752C403.97 12.6952 404.312 11.5752 404.994 10.6152C405.677 9.63386 406.626 8.8872 407.842 8.37519C409.058 7.84186 410.434 7.5752 411.97 7.5752Z" fill="#DB240B"/>
<path d="M442.671 30.2952L441.519 25.5272H435.055L433.935 30.2952H428.495L435.183 8.1192H441.551L448.239 30.2952H442.671ZM435.951 21.7192H440.623L438.287 11.9272L435.951 21.7192Z" fill="#DB240B"/>
<path d="M243.009 44.4472V70.7432H237.423V44.4472H243.009Z" fill="white"/>
<path d="M272.989 70.7432H265.807L257.447 49.8812C257.675 51.6799 257.852 53.3772 257.979 54.9732C258.131 56.5439 258.207 58.3932 258.207 60.5212V70.7432H253.153V44.4472H260.183L268.695 65.3472C268.188 61.9526 267.935 58.8366 267.935 55.9992V44.4472H272.989V70.7432Z" fill="white"/>
<path d="M300.538 44.4472L299.93 48.8172H293.28V70.7432H287.694V48.8172H280.702V44.4472H300.538Z" fill="white"/>
<path d="M323.648 44.4472L323.04 48.5132H313.54V55.3532H321.824V59.3812H313.54V66.6392H323.724V70.7432H307.954V44.4472H323.648Z" fill="white"/>
<path d="M341.027 60.4452H338.177V70.7432H332.591V44.4472H340.799C344.32 44.4472 346.967 45.1059 348.741 46.4232C350.514 47.7152 351.401 49.6786 351.401 52.3132C351.401 54.0359 350.97 55.4546 350.109 56.5692C349.273 57.6839 347.968 58.6339 346.195 59.4192L352.997 70.7432H346.651L341.027 60.4452ZM338.177 56.4932H341.103C342.597 56.4932 343.725 56.1639 344.485 55.5052C345.245 54.8212 345.625 53.7572 345.625 52.3132C345.625 50.9706 345.219 49.9952 344.409 49.3872C343.623 48.7539 342.382 48.4372 340.685 48.4372H338.177V56.4932Z" fill="white"/>
<path d="M380.328 70.7432H373.146L364.786 49.8812C365.014 51.6799 365.192 53.3772 365.318 54.9732C365.47 56.5439 365.546 58.3932 365.546 60.5212V70.7432H360.492V44.4472H367.522L376.034 65.3472C375.528 61.9526 375.274 58.8366 375.274 55.9992V44.4472H380.328V70.7432Z" fill="white"/>
<path d="M404.343 70.7432L402.861 64.8532H394.615L393.133 70.7432H387.319L395.413 44.4472H402.215L410.271 70.7432H404.343ZM395.679 60.7112H401.797L398.719 48.5892L395.679 60.7112Z" fill="white"/>
<path d="M432.81 44.4472L432.202 48.8172H425.552V70.7432H419.966V48.8172H412.974V44.4472H432.81Z" fill="white"/>
<path d="M445.813 44.4472V70.7432H440.227V44.4472H445.813Z" fill="white"/>
<path d="M466.331 43.8392C468.738 43.8392 470.815 44.3839 472.563 45.4732C474.311 46.5372 475.654 48.0952 476.591 50.1472C477.528 52.1992 477.997 54.6819 477.997 57.5952C477.997 60.4579 477.528 62.9279 476.591 65.0052C475.654 67.0572 474.311 68.6279 472.563 69.7172C470.815 70.8066 468.738 71.3512 466.331 71.3512C463.924 71.3512 461.834 70.8192 460.061 69.7552C458.313 68.6659 456.97 67.0952 456.033 65.0432C455.096 62.9659 454.627 60.4832 454.627 57.5952C454.627 54.7579 455.096 52.3132 456.033 50.2612C456.996 48.1839 458.351 46.6006 460.099 45.5112C461.872 44.3966 463.95 43.8392 466.331 43.8392ZM466.331 48.0192C464.406 48.0192 462.949 48.7792 461.961 50.2992C460.998 51.8192 460.517 54.2512 460.517 57.5952C460.517 60.9392 461.011 63.3712 461.999 64.8912C462.987 66.4112 464.431 67.1712 466.331 67.1712C468.256 67.1712 469.7 66.4239 470.663 64.9292C471.626 63.4092 472.107 60.9646 472.107 57.5952C472.107 54.2259 471.626 51.7939 470.663 50.2992C469.7 48.7792 468.256 48.0192 466.331 48.0192Z" fill="white"/>
<path d="M506.626 70.7432H499.444L491.084 49.8812C491.312 51.6799 491.49 53.3772 491.616 54.9732C491.768 56.5439 491.844 58.3932 491.844 60.5212V70.7432H486.79V44.4472H493.82L502.332 65.3472C501.826 61.9526 501.572 58.8366 501.572 55.9992V44.4472H506.626V70.7432Z" fill="white"/>
<path d="M530.641 70.7432L529.159 64.8532H520.913L519.431 70.7432H513.617L521.711 44.4472H528.513L536.569 70.7432H530.641ZM521.977 60.7112H528.095L525.017 48.5892L521.977 60.7112Z" fill="white"/>
<path d="M549.145 44.4472V66.2592H559.557L558.949 70.7432H543.559V44.4472H549.145Z" fill="white"/>
<path d="M254.9 158.025C254.9 162.12 253.325 164.43 249.44 164.43C245.03 164.43 243.665 161.49 243.665 156.87V139.65H236V158.025C236 167.37 240.095 172.305 249.545 172.305C259.1 172.305 262.88 167.16 262.88 158.025V145.635C262.88 138.075 261.935 135.45 259.1 131.88C255.845 127.785 249.755 122.745 245.975 117.81C244.4 115.815 244.085 114.765 244.085 111.09V98.28C244.085 94.185 245.975 92.085 249.65 92.085C253.955 92.085 255.11 95.025 255.11 99.33V114.03H262.565V98.28C262.565 88.725 259.1 84 249.755 84C240.515 84 236 88.62 236 98.28V111.195C236 116.97 236.21 119.07 238.835 122.43C241.88 126.315 247.865 131.355 252.275 136.815C254.375 139.44 254.9 140.49 254.9 145.74V158.025Z" fill="white"/>
<path d="M292.55 114.975C292.55 120.33 290.345 122.535 285.725 122.535H280.16V93.03H285.62C290.66 93.03 292.55 95.445 292.55 100.59V114.975ZM280.16 171.36V130.305H285.725C295.805 130.305 300.425 125.685 300.425 114.765V100.59C300.425 89.67 295.7 84.945 285.62 84.945H272.18V171.36H280.16Z" fill="white"/>
<path d="M333.464 171.36L322.229 84.945H312.884L301.019 171.36H308.789L310.679 156.87H323.594L325.484 171.36H333.464ZM311.624 149.52C313.619 134.715 315.509 120.435 317.294 105.21C318.974 120.435 320.864 134.715 322.649 149.52H311.624Z" fill="white"/>
<path d="M358.382 157.605C358.382 162.225 356.912 164.43 353.027 164.43C349.247 164.43 347.357 162.12 347.357 157.605V98.805C347.357 94.29 349.247 92.085 353.027 92.085C357.122 92.085 358.382 94.185 358.382 98.805V114.03H365.627V98.7C365.627 88.935 361.427 84 353.027 84C343.892 84 339.272 88.935 339.272 98.91V157.71C339.272 167.475 343.892 172.305 353.027 172.305C361.847 172.305 365.627 167.58 365.627 157.5V139.65H358.382V157.605Z" fill="white"/>
<path d="M398.344 171.36V163.485H382.909V131.355H393.409V123.375H382.909V93.03H397.819V84.945H374.929V171.36H398.344Z" fill="white"/>
<path d="M453.783 171.36L442.548 84.945H433.203L421.338 171.36H429.108L430.998 156.87H443.913L445.803 171.36H453.783ZM431.943 149.52C433.938 134.715 435.828 120.435 437.613 105.21C439.293 120.435 441.183 134.715 442.968 149.52H431.943Z" fill="white"/>
<path d="M482.129 114.975C482.129 120.33 479.924 122.535 475.304 122.535H469.739V93.03H475.199C480.239 93.03 482.129 95.445 482.129 100.59V114.975ZM469.739 171.36V130.305H475.304C485.384 130.305 490.004 125.685 490.004 114.765V100.59C490.004 89.67 485.279 84.945 475.199 84.945H461.759V171.36H469.739Z" fill="white"/>
<path d="M518.592 114.975C518.592 120.33 516.387 122.535 511.767 122.535H506.202V93.03H511.662C516.702 93.03 518.592 95.445 518.592 100.59V114.975ZM506.202 171.36V130.305H511.767C521.847 130.305 526.467 125.685 526.467 114.765V100.59C526.467 89.67 521.742 84.945 511.662 84.945H498.222V171.36H506.202Z" fill="white"/>
<path d="M553.253 158.025C553.253 162.12 551.678 164.43 547.793 164.43C543.383 164.43 542.018 161.49 542.018 156.87V139.65H534.353V158.025C534.353 167.37 538.448 172.305 547.898 172.305C557.453 172.305 561.233 167.16 561.233 158.025V145.635C561.233 138.075 560.288 135.45 557.453 131.88C554.198 127.785 548.108 122.745 544.328 117.81C542.753 115.815 542.438 114.765 542.438 111.09V98.28C542.438 94.185 544.328 92.085 548.003 92.085C552.308 92.085 553.463 95.025 553.463 99.33V114.03H560.918V98.28C560.918 88.725 557.453 84 548.108 84C538.868 84 534.353 88.62 534.353 98.28V111.195C534.353 116.97 534.563 119.07 537.188 122.43C540.233 126.315 546.218 131.355 550.628 136.815C552.728 139.44 553.253 140.49 553.253 145.74V158.025Z" fill="white"/>
<path d="M247.896 185.292C250.834 185.219 253.692 186.249 255.909 188.178L252.949 191.709C252.245 191.149 251.466 190.69 250.635 190.345C249.853 190.035 249.019 189.881 248.179 189.891C247.343 189.874 246.518 190.071 245.78 190.462C245.042 190.853 244.415 191.426 243.96 192.126C242.953 193.624 242.448 195.929 242.444 199.04C242.44 202.15 242.945 204.428 243.96 205.873C244.431 206.575 245.072 207.145 245.824 207.53C246.576 207.914 247.414 208.101 248.258 208.071C249.16 208.086 250.054 207.906 250.88 207.543C251.777 207.095 252.629 206.561 253.422 205.947L256.197 209.514C255.156 210.549 253.932 211.382 252.587 211.97C251.131 212.618 249.551 212.942 247.958 212.922C245.738 212.975 243.545 212.423 241.615 211.326C239.772 210.212 238.305 208.571 237.403 206.616C236.357 204.239 235.849 201.66 235.917 199.064C235.855 196.502 236.382 193.96 237.458 191.635C238.384 189.684 239.861 188.046 241.707 186.926C243.581 185.824 245.722 185.259 247.896 185.292V185.292Z" fill="white"/>
<path d="M289.334 212.253V200.974H281.439V212.253H275.207V185.937H281.439V196.117H289.334V185.937H295.56V212.253H289.334Z" fill="white"/>
<path d="M330.564 212.253L329.201 206.592H321.532L320.2 212.253H313.747L321.679 185.937H329.238L337.17 212.253H330.564ZM322.582 202.073H328.108L325.333 190.456L322.582 202.073Z" fill="white"/>
<path d="M361.54 185.937V207.298H371.794L371.18 212.21H355.345V185.937H361.54Z" fill="white"/>
<path d="M397.219 185.937V207.298H407.466L406.852 212.21H390.993V185.937H397.219Z" fill="white"/>
<path d="M442.808 185.937L442.157 190.382H432.898V196.682H440.984V201.053H432.898V207.771H442.808V212.253H426.672V185.937H442.808Z" fill="white"/>
<path d="M483.141 212.253H475.208L467.613 191.862C467.865 193.864 468.055 195.632 468.184 197.179C468.313 198.726 468.411 200.507 468.411 202.607V212.253H462.885V185.937H470.628L478.413 206.365C477.873 203.117 477.594 199.832 477.578 196.541V185.937H483.159L483.141 212.253Z" fill="white"/>
<path d="M515.646 185.292C518.869 185.235 521.997 186.387 524.413 188.522L521.264 191.825C520.466 191.198 519.583 190.687 518.642 190.309C517.774 189.961 516.844 189.792 515.91 189.811C515.001 189.786 514.1 189.984 513.285 190.387C512.471 190.791 511.767 191.388 511.237 192.126C510.079 193.649 509.497 195.966 509.493 199.076C509.493 202.441 509.935 204.834 510.82 206.254C511.26 206.939 511.877 207.495 512.604 207.862C513.332 208.229 514.145 208.394 514.958 208.342C516.201 208.357 517.429 208.057 518.525 207.47V201.508H515.111L514.497 197.099H524.561V210.122C523.164 211.025 521.641 211.716 520.042 212.173C518.448 212.648 516.793 212.892 515.13 212.897C511.135 212.897 508.122 211.733 506.092 209.404C504.062 207.075 503.051 203.632 503.059 199.076C502.988 196.501 503.546 193.946 504.686 191.635C505.704 189.66 507.274 188.024 509.205 186.926C511.172 185.828 513.393 185.265 515.646 185.292Z" fill="white"/>
<path d="M561.069 185.937L560.455 190.382H551.159V196.682H559.251V201.053H551.159V207.771H561.069V212.253H544.933V185.937H561.069Z" fill="white"/>
</g>
<defs>
<clipPath id="clip0_288_1128">
<rect width="560.841" height="220.501" fill="white" transform="translate(0.45752)"/>
</clipPath>
</defs>
</svg>
